<?xml version="1.0" encoding="utf-8"?>
<!-- Generator: Adobe Illustrator 15.1.0, SVG Export Plug-In . SVG Version: 6.00 Build 0)  -->
<!DOCTYPE svg PUBLIC "-//W3C//DTD SVG 1.1//EN" "http://www.w3.org/Graphics/SVG/1.1/DTD/svg11.dtd">
<svg version="1.1" id="Layer_1" xmlns="http://www.w3.org/2000/svg" xmlns:xlink="http://www.w3.org/1999/xlink" x="0px" y="0px"
	 width="110px" height="160px" viewBox="0 0 110 160" enable-background="new 0 0 110 160" xml:space="preserve">
<polygon fill="#E55552" points="6.826,6.405 14.826,6.405 14.826,52.813 15.667,78.833 6.333,85.083 "/>
<rect x="15.035" y="6.495" fill="#F28361" width="8" height="111.942"/>
<rect x="12.421" y="6.401" fill="#1C282D" width="5" height="113.921"/>
<rect x="4.388" y="4.166" fill="none" stroke="#1B262B" stroke-width="5" stroke-miterlimit="10" width="21.084" height="95.813"/>
<g>
	<g>
		<path id="XMLID_2_" fill="#0F76A3" d="M85.157,105.5c0,17-13.366,30.021-29.854,30.021c-16.488,0-29.854-13.283-29.854-29.771
			s13.366-29.813,29.854-29.813c6.233,0,12.019,1.935,16.806,5.202l6.578-14.951l4.035-3.683
			c-7.929-5.086-17.352-8.045-27.471-8.045c-28.147,0-50.965,22.819-50.965,50.967c0,28.148,22.817,50.8,50.965,50.8
			c28.012,0,50.734-22.727,50.955-50.727H85.157z"/>
	</g>
	<g>
		<defs>
			<path id="SVGID_1_" d="M85.157,105.5c0,17-13.366,30.021-29.854,30.021c-16.488,0-29.854-13.283-29.854-29.771
				s13.366-29.813,29.854-29.813c6.233,0,12.019,1.935,16.806,5.202l6.578-14.951l4.035-3.683
				c-7.929-5.086-17.352-8.045-27.471-8.045c-28.147,0-50.965,22.819-50.965,50.967c0,28.148,22.817,50.8,50.965,50.8
				c28.012,0,50.734-22.727,50.955-50.727H85.157z"/>
		</defs>
		<clipPath id="SVGID_2_">
			<use xlink:href="#SVGID_1_"  overflow="visible"/>
		</clipPath>
		
			<circle clip-path="url(#SVGID_2_)" fill="#44A2CC" stroke="#1B262B" stroke-width="5.2149" stroke-miterlimit="10" cx="55.247" cy="105.343" r="41.034"/>
	</g>
	<g>
		<path id="XMLID_1_" fill="none" stroke="#1B262B" stroke-width="5" stroke-miterlimit="10" d="M85.157,105.5
			c0,17-13.366,30.021-29.854,30.021c-16.488,0-29.854-13.283-29.854-29.771s13.366-29.813,29.854-29.813
			c6.233,0,12.019,1.935,16.806,5.202l6.578-14.951l4.035-3.683c-7.929-5.086-17.352-8.045-27.471-8.045
			c-28.147,0-50.965,22.819-50.965,50.967c0,28.148,22.817,50.8,50.965,50.8c28.012,0,50.734-22.727,50.955-50.727H85.157z"/>
	</g>
</g>
<circle fill="#FCCDA0" stroke="#1B262B" stroke-width="5" stroke-miterlimit="10" cx="76.792" cy="78.367" r="16.58"/>
<circle fill="#FAB869" stroke="#1B262B" stroke-width="5" stroke-miterlimit="10" cx="76.792" cy="78.494" r="7.098"/>
<rect x="97.111" y="108.004" fill="#65C3A8" width="8" height="46.111"/>
<rect x="85.139" y="105.54" fill="none" stroke="#1B262B" stroke-width="5" stroke-miterlimit="10" width="21.084" height="51.088"/>
<rect x="87.02" y="108.004" fill="#92CCB4" width="8" height="46.111"/>
<rect x="92.9" y="107" fill="#1C282D" width="5" height="49"/>
</svg>
