<?xml version="1.0" encoding="utf-8"?>
<!-- Generator: Adobe Illustrator 15.1.0, SVG Export Plug-In . SVG Version: 6.00 Build 0)  -->
<!DOCTYPE svg PUBLIC "-//W3C//DTD SVG 1.1//EN" "http://www.w3.org/Graphics/SVG/1.1/DTD/svg11.dtd">
<svg version="1.1" id="Layer_1" xmlns="http://www.w3.org/2000/svg" xmlns:xlink="http://www.w3.org/1999/xlink" x="0px" y="0px"
	 width="48px" height="48px" viewBox="0 0 48 48" enable-background="new 0 0 48 48" xml:space="preserve">
<g>
	
		<rect x="16.066" y="11.087" transform="matrix(-0.7071 -0.7071 0.7071 -0.7071 33.7885 49.4548)" fill="#65C3A8" width="22.142" height="13.286"/>
	<path fill="#65C3A8" d="M9.916,39.646c-1.298,1.299-3.399,1.299-4.698,0l0,0c-1.296-1.297-1.296-3.396,0-4.693l14.875-14.875
		c1.294-1.296,3.4-1.296,4.697,0l0,0c1.296,1.296,1.296,3.401,0,4.695L9.916,39.646z"/>
	<path fill="#65C3A8" d="M16.832,17.077c-1.226,1.224-3.213,1.224-4.438,0l-0.261-0.262c-1.225-1.224-1.225-3.21,0-4.436
		L22.571,1.942c1.225-1.224,3.21-1.224,4.437,0l0.26,0.261c1.228,1.225,1.228,3.21,0,4.436L16.832,17.077z"/>
	<path fill="#65C3A8" d="M32.488,32.732c-1.229,1.224-3.213,1.224-4.437,0l-0.26-0.258c-1.228-1.229-1.228-3.216,0-4.439
		L38.229,17.6c1.224-1.226,3.211-1.226,4.438,0l0.26,0.26c1.225,1.225,1.225,3.21,0,4.437L32.488,32.732z"/>
</g>
<path fill="#65C3A8" d="M47,44.971C47,43.882,46.118,43,45.029,43H20.971C19.882,43,19,43.882,19,44.971v0.059
	C19,46.118,19.882,47,20.971,47h24.058C46.118,47,47,46.118,47,45.029V44.971z"/>
<path fill="#65C3A8" d="M44,41c0-1.104-0.896-2-2-2H24c-1.104,0-2,0.896-2,2l0,0c0,1.104,0.896,2,2,2h18C43.104,43,44,42.104,44,41
	L44,41z"/>
</svg>
