<?xml version="1.0" encoding="utf-8"?>
<!-- Generator: Adobe Illustrator 15.1.0, SVG Export Plug-In . SVG Version: 6.00 Build 0)  -->
<!DOCTYPE svg PUBLIC "-//W3C//DTD SVG 1.1//EN" "http://www.w3.org/Graphics/SVG/1.1/DTD/svg11.dtd">
<svg version="1.1" id="Layer_1" xmlns="http://www.w3.org/2000/svg" xmlns:xlink="http://www.w3.org/1999/xlink" x="0px" y="0px"
	 width="32px" height="32px" viewBox="0 0 32 32" enable-background="new 0 0 32 32" xml:space="preserve">
<g>
	<path fill="none" stroke="#4B5F6A" stroke-width="1.5" stroke-miterlimit="10" d="M16.924,1.19c7.576,0,13.715,6.139,13.715,13.714
		c0,7.591-6.14,13.729-13.715,13.729c-7.572,0-13.71-6.138-13.71-13.729C3.214,7.329,9.353,1.19,16.924,1.19z"/>
</g>
<g>
	<path fill="#4B5F6A" d="M15.327,16.489l-4.734-3.511v5.507c0,0.862,0.671,1.528,1.533,1.528h4.855h4.855
		c0.861,0,1.533-0.666,1.533-1.528v-5.581l-4.975,3.584C17.541,17.101,16.179,17.101,15.327,16.489z"/>
	<path fill="#4B5F6A" d="M16.951,15.654c0.376,0.004,1.18-0.45,1.374-0.61l5.044-3.925c-0.128-0.731-0.766-1.269-1.533-1.269H16.98
		h-4.855c-0.759,0-1.391,0.524-1.531,1.242l5.041,3.96C15.812,15.198,16.588,15.65,16.951,15.654z"/>
</g>
</svg>
