<?xml version="1.0" encoding="utf-8"?>
<!-- Generator: Adobe Illustrator 15.1.0, SVG Export Plug-In . SVG Version: 6.00 Build 0)  -->
<!DOCTYPE svg PUBLIC "-//W3C//DTD SVG 1.1//EN" "http://www.w3.org/Graphics/SVG/1.1/DTD/svg11.dtd">
<svg version="1.1" id="Layer_1" xmlns="http://www.w3.org/2000/svg" xmlns:xlink="http://www.w3.org/1999/xlink" x="0px" y="0px"
	 width="38px" height="24px" viewBox="0 0 38 24" enable-background="new 0 0 38 24" xml:space="preserve">
<path opacity="0.07" enable-background="new    " d="M35,0H3C1.3,0,0,1.3,0,3v18c0,1.7,1.4,3,3,3h32c1.7,0,3-1.3,3-3V3
	C38,1.3,36.6,0,35,0z"/>
<path fill="#FFFFFF" d="M35,1c1.1,0,2,0.9,2,2v18c0,1.1-0.9,2-2,2H3c-1.1,0-2-0.9-2-2V3c0-1.1,0.9-2,2-2H35"/>
<circle fill="#CE4549" cx="15" cy="12" r="7"/>
<circle fill="#FFAA2E" cx="23" cy="12" r="7"/>
<path fill="#FF7733" d="M22,12c0-2.4-1.2-4.5-3-5.7c-1.8,1.3-3,3.4-3,5.7s1.2,4.5,3,5.7C20.8,16.5,22,14.4,22,12z"/>
<path fill="#FFFFFF" d="M12,11h14v2H12V11z"/>
</svg>
