<?xml version="1.0" encoding="utf-8"?>
<!-- Generator: Adobe Illustrator 15.1.0, SVG Export Plug-In . SVG Version: 6.00 Build 0)  -->
<!DOCTYPE svg PUBLIC "-//W3C//DTD SVG 1.1//EN" "http://www.w3.org/Graphics/SVG/1.1/DTD/svg11.dtd">
<svg version="1.1" id="Layer_1" xmlns="http://www.w3.org/2000/svg" xmlns:xlink="http://www.w3.org/1999/xlink" x="0px" y="0px"
	 width="32px" height="32px" viewBox="0 0 32 32" enable-background="new 0 0 32 32" xml:space="preserve">
<path fill="#4B5F6A" d="M20.941,13.431H20.2v-1.352c0-1.767-1.433-3.2-3.2-3.2c-1.767,0-3.2,1.433-3.2,3.2v1.352H12.94
	c-0.441,0-0.74,0.606-0.74,1.048v5.604c0,0.441,0.299,0.552,0.74,0.552h8c0.442,0,0.858-0.11,0.858-0.552v-5.604
	C21.8,14.037,21.383,13.431,20.941,13.431z M18.6,13.431h-3.2v-1.623c0-0.752,0.848-1.362,1.6-1.362s1.6,0.61,1.6,1.362V13.431z"/>
<g>
	<path fill="none" stroke="#4B5F6A" stroke-width="1.5" stroke-miterlimit="10" d="M16.924,1.19c7.576,0,13.715,6.139,13.715,13.714
		c0,7.591-6.14,13.729-13.715,13.729c-7.572,0-13.71-6.138-13.71-13.729C3.214,7.329,9.353,1.19,16.924,1.19z"/>
</g>
</svg>
