<?xml version="1.0" encoding="utf-8"?>
<!-- Generator: Adobe Illustrator 15.1.0, SVG Export Plug-In . SVG Version: 6.00 Build 0)  -->
<!DOCTYPE svg PUBLIC "-//W3C//DTD SVG 1.1//EN" "http://www.w3.org/Graphics/SVG/1.1/DTD/svg11.dtd">
<svg version="1.1" id="Layer_1" xmlns="http://www.w3.org/2000/svg" xmlns:xlink="http://www.w3.org/1999/xlink" x="0px" y="0px"
	 width="50px" height="50px" viewBox="0 0 50 50" enable-background="new 0 0 50 50" xml:space="preserve">
<g display="none">
	<path display="inline" fill="#313030" d="M19.306,29.864L3,17.773v18.968C3,39.71,5.312,42,8.28,42H25h16.721
		C44.689,42,47,39.71,47,36.741v-19.22L29.869,29.864C26.932,31.964,22.242,31.964,19.306,29.864z"/>
	<path display="inline" fill="#313030" d="M24.899,26.988c1.294,0.016,4.061-1.548,4.732-2.099l17.374-13.517
		C46.561,8.855,44.366,7,41.721,7H25H8.28c-2.613,0-4.789,1.808-5.272,4.279l17.361,13.639
		C20.977,25.417,23.651,26.975,24.899,26.988z"/>
</g>
<rect x="6" y="7" display="none" fill="#313030" width="9" height="35"/>
<rect x="21" y="14" display="none" fill="#313030" width="9" height="28"/>
<rect x="36" y="22" display="none" fill="#313030" width="9" height="20"/>
<circle fill="none" stroke="#969899" stroke-width="3" stroke-miterlimit="10" cx="20.022" cy="21.76" r="7.161"/>
<line fill="none" stroke="#969899" stroke-width="5" stroke-linecap="round" stroke-miterlimit="10" x1="28.387" y1="30.16" x2="31.754" y2="33.527"/>
<line fill="none" stroke="#969899" stroke-width="3" stroke-linecap="round" stroke-miterlimit="10" x1="25.738" y1="27.512" x2="27.279" y2="29.055"/>
</svg>
