<?xml version="1.0" encoding="utf-8"?>
<!-- Generator: Adobe Illustrator 15.1.0, SVG Export Plug-In . SVG Version: 6.00 Build 0)  -->
<!DOCTYPE svg PUBLIC "-//W3C//DTD SVG 1.1//EN" "http://www.w3.org/Graphics/SVG/1.1/DTD/svg11.dtd">
<svg version="1.1" id="Layer_1" xmlns="http://www.w3.org/2000/svg" xmlns:xlink="http://www.w3.org/1999/xlink" x="0px" y="0px"
	 width="250px" height="250px" viewBox="0 0 250 250" enable-background="new 0 0 250 250" xml:space="preserve">
<circle fill="#F7F8F9" stroke="#C8CACC" stroke-width="4.0602" stroke-miterlimit="10" cx="125" cy="125" r="115.31"/>
<g>
	<path fill="#F7F8F9" stroke="#C8CACC" stroke-width="3" stroke-linejoin="round" stroke-miterlimit="10" d="M181,72
		c0-1.657-1.343-3-3-3H72.499c-1.657,0-3,1.343-3,3v15.25c0,1.657,1.343,3,3,3H178c1.657,0,3-1.343,3-3V72z"/>
	<path fill="#F7F8F9" stroke="#C8CACC" stroke-width="3" stroke-linejoin="round" stroke-miterlimit="10" d="M181,101.5
		c0-1.657-1.343-3-3-3H72.499c-1.657,0-3,1.343-3,3v72c0,1.657,1.343,3,3,3H178c1.657,0,3-1.343,3-3V101.5z"/>
	<path fill="#FFFFFF" stroke="#C8CACC" stroke-width="3" stroke-linejoin="round" stroke-miterlimit="10" d="M181.225,84.104H69.499
		c0,0-5.453,10.825-6.25,14.75c-0.976,4.804,3.974,8.875,8.875,8.875c4.875,0,8.829-3.933,8.871-8.798
		c0.042,4.865,3.996,8.798,8.871,8.798c4.898,0,8.869-3.969,8.874-8.865c0.006,4.896,3.977,8.865,8.875,8.865
		c4.875,0,8.829-3.933,8.871-8.798c0.042,4.865,3.996,8.798,8.871,8.798c4.901,0,8.875-3.974,8.875-8.875
		c0,4.901,3.974,8.875,8.875,8.875c4.875,0,8.829-3.933,8.871-8.798c0.042,4.865,3.996,8.798,8.871,8.798
		c4.901,0,8.875-3.974,8.875-8.875c0,4.901,3.974,8.875,8.875,8.875s9.851-4.071,8.875-8.875
		C186.678,94.93,181.225,84.104,181.225,84.104z"/>
	
		<line fill="#F7F8F9" stroke="#C8CACC" stroke-width="3" stroke-linejoin="round" stroke-miterlimit="10" x1="69.499" y1="84.104" x2="181" y2="84.104"/>
	<path fill="#FFFFFF" stroke="#C8CACC" stroke-width="3" stroke-linejoin="round" stroke-miterlimit="10" d="M191.375,181v-12
		c0-1.657-1.343-3-3-3H61.625c-1.657,0-3,1.343-3,3v12H191.375z"/>
	<rect x="81.25" y="118" fill="#FFFFFF" stroke="#C8CACC" stroke-width="3" stroke-miterlimit="10" width="35.5" height="48"/>
	<rect x="135.5" y="118" fill="#FFFFFF" stroke="#C8CACC" stroke-width="3" stroke-miterlimit="10" width="35.5" height="24"/>
	<circle fill="#F7F8F9" stroke="#C8CACC" stroke-width="3" stroke-miterlimit="10" cx="99" cy="142" r="3.998"/>
</g>
</svg>
