<?xml version="1.0" encoding="utf-8"?>
<!-- Generator: Adobe Illustrator 15.1.0, SVG Export Plug-In . SVG Version: 6.00 Build 0)  -->
<!DOCTYPE svg PUBLIC "-//W3C//DTD SVG 1.1//EN" "http://www.w3.org/Graphics/SVG/1.1/DTD/svg11.dtd">
<svg version="1.1" id="Layer_1" xmlns="http://www.w3.org/2000/svg" xmlns:xlink="http://www.w3.org/1999/xlink" x="0px" y="0px"
	 width="250px" height="250px" viewBox="0 0 250 250" enable-background="new 0 0 250 250" xml:space="preserve">
<circle fill="#F7F8F9" stroke="#C8CACC" stroke-width="4.0602" stroke-miterlimit="10" cx="124.75" cy="125.331" r="115.309"/>
<g>
	
		<rect x="54.026" y="107.1" transform="matrix(0.9544 -0.2986 0.2986 0.9544 -30.0616 27.4067)" fill="#F7F8F9" stroke="#C8CACC" stroke-width="3.1755" stroke-miterlimit="10" width="41.281" height="9.98"/>
	<polygon fill="#FFFFFF" stroke="#C8CACC" stroke-width="3.1755" stroke-miterlimit="10" points="80.424,91.751 78.909,86.908 
		68.859,76.689 56.439,80.573 54.081,94.676 55.584,99.522 	"/>
	
		<rect x="64.775" y="95.389" transform="matrix(-0.9544 0.2986 -0.2986 -0.9544 166.7263 178.0081)" fill="#F7F8F9" stroke="#C8CACC" stroke-width="3.1755" stroke-miterlimit="10" width="9.98" height="12.702"/>
	<circle fill="#F7F8F9" stroke="#C8CACC" stroke-width="3.1755" stroke-miterlimit="10" cx="72.948" cy="111.914" r="8.922"/>
	
		<line fill="#F7F8F9" stroke="#C8CACC" stroke-width="3.1755" stroke-miterlimit="10" x1="67.604" y1="113.824" x2="78.428" y2="110.438"/>
	<polygon fill="#EAEAEA" stroke="#C8CACC" stroke-width="3" stroke-miterlimit="10" points="114.521,86.956 108.46,88.936 
		140.208,190.5 146.862,190.5 	"/>
	<path fill="#EAEAEA" stroke="#C8CACC" stroke-width="3.1755" stroke-miterlimit="10" d="M115.62,94.287
		c-9.116,2.852-14.194,12.554-11.342,21.67s12.554,14.194,21.67,11.342c9.117-2.852,14.194-12.554,11.342-21.67
		C134.438,96.512,124.735,91.435,115.62,94.287z M124.141,121.524c-5.926,1.854-12.234-1.447-14.088-7.374
		c-1.854-5.928,1.447-12.234,7.374-14.089c5.926-1.854,12.234,1.447,14.088,7.374C133.368,113.362,130.066,119.669,124.141,121.524z
		"/>
	<g>
		<path fill="#FFFFFF" d="M136.622,190c2.495,0,3.927-1.867,3.182-4.248L110.68,92.701c-0.745-2.381-3.303-3.7-5.684-2.955
			l-17.75,5.564c-2.381,0.745-3.72,3.308-2.975,5.689l26.539,84.75c0.745,2.381,3.396,4.25,5.891,4.25H136.622z"/>
		<path fill="none" stroke="#C8CACC" stroke-width="3" stroke-miterlimit="10" d="M136.622,190.5c2.495,0,3.927-2.117,3.182-4.498
			L110.68,92.826c-0.745-2.381-3.303-3.762-5.684-3.017l-17.75,5.533c-2.381,0.745-3.72,3.292-2.975,5.674l26.539,84.992
			c0.745,2.381,3.396,4.492,5.891,4.492H136.622z"/>
	</g>
	<line fill="none" stroke="#C8CACC" stroke-width="3" stroke-miterlimit="10" x1="68" y1="190.5" x2="173" y2="190.5"/>
	<g>
		<defs>
			<path id="XMLID_1_" d="M178.42,60.855l-63.257,19.629c-6.494,2.032-10.632,9.544-8.487,16.401
				c2.145,6.857,9.436,10.793,16.345,8.632l63.187-19.769l10.208-10.083l-3.89-12.435L178.42,60.855z"/>
		</defs>
		<use xlink:href="#XMLID_1_"  overflow="visible" fill="#EAEAEA"/>
		<clipPath id="XMLID_3_">
			<use xlink:href="#XMLID_1_"  overflow="visible"/>
		</clipPath>
		
			<line clip-path="url(#XMLID_3_)" fill="#EAEAEA" stroke="#C8CACC" stroke-width="3.1755" stroke-miterlimit="10" x1="106.275" y1="58.644" x2="121.891" y2="108.557"/>
		
			<line clip-path="url(#XMLID_3_)" fill="#EAEAEA" stroke="#C8CACC" stroke-width="3.1755" stroke-miterlimit="10" x1="113.987" y1="58.644" x2="129.603" y2="108.557"/>
		
			<line clip-path="url(#XMLID_3_)" fill="#EAEAEA" stroke="#C8CACC" stroke-width="3.1755" stroke-miterlimit="10" x1="113.987" y1="58.644" x2="129.603" y2="108.557"/>
		
			<line clip-path="url(#XMLID_3_)" fill="#EAEAEA" stroke="#C8CACC" stroke-width="3.1755" stroke-miterlimit="10" x1="106.275" y1="58.644" x2="121.891" y2="108.557"/>
		
			<line clip-path="url(#XMLID_3_)" fill="#EAEAEA" stroke="#C8CACC" stroke-width="3.1755" stroke-miterlimit="10" x1="121.699" y1="58.644" x2="137.314" y2="108.557"/>
		
			<line clip-path="url(#XMLID_3_)" fill="#EAEAEA" stroke="#C8CACC" stroke-width="3.1755" stroke-miterlimit="10" x1="121.699" y1="58.644" x2="137.314" y2="108.557"/>
		
			<line clip-path="url(#XMLID_3_)" fill="#EAEAEA" stroke="#C8CACC" stroke-width="3.1755" stroke-miterlimit="10" x1="129.41" y1="58.644" x2="145.026" y2="108.557"/>
		
			<line clip-path="url(#XMLID_3_)" fill="#EAEAEA" stroke="#C8CACC" stroke-width="3.1755" stroke-miterlimit="10" x1="129.41" y1="58.644" x2="145.026" y2="108.557"/>
		
			<line clip-path="url(#XMLID_3_)" fill="#EAEAEA" stroke="#C8CACC" stroke-width="3.1755" stroke-miterlimit="10" x1="137.123" y1="58.644" x2="152.738" y2="108.557"/>
		
			<line clip-path="url(#XMLID_3_)" fill="#EAEAEA" stroke="#C8CACC" stroke-width="3.1755" stroke-miterlimit="10" x1="137.123" y1="58.644" x2="152.738" y2="108.557"/>
		
			<line clip-path="url(#XMLID_3_)" fill="#EAEAEA" stroke="#C8CACC" stroke-width="3.1755" stroke-miterlimit="10" x1="144.835" y1="58.644" x2="160.45" y2="108.557"/>
		
			<line clip-path="url(#XMLID_3_)" fill="#EAEAEA" stroke="#C8CACC" stroke-width="3.1755" stroke-miterlimit="10" x1="144.835" y1="58.644" x2="160.45" y2="108.557"/>
		
			<line clip-path="url(#XMLID_3_)" fill="#EAEAEA" stroke="#C8CACC" stroke-width="3.1755" stroke-miterlimit="10" x1="152.547" y1="58.644" x2="168.162" y2="108.557"/>
		
			<line clip-path="url(#XMLID_3_)" fill="#EAEAEA" stroke="#C8CACC" stroke-width="3.1755" stroke-miterlimit="10" x1="152.547" y1="58.644" x2="168.162" y2="108.557"/>
		
			<line clip-path="url(#XMLID_3_)" fill="#EAEAEA" stroke="#C8CACC" stroke-width="3.1755" stroke-miterlimit="10" x1="160.259" y1="58.644" x2="175.874" y2="108.557"/>
		
			<line clip-path="url(#XMLID_3_)" fill="#EAEAEA" stroke="#C8CACC" stroke-width="3.1755" stroke-miterlimit="10" x1="160.259" y1="58.644" x2="175.874" y2="108.557"/>
		
			<line clip-path="url(#XMLID_3_)" fill="#EAEAEA" stroke="#C8CACC" stroke-width="3.1755" stroke-miterlimit="10" x1="167.971" y1="58.644" x2="183.585" y2="108.557"/>
		
			<line clip-path="url(#XMLID_3_)" fill="#EAEAEA" stroke="#C8CACC" stroke-width="3.1755" stroke-miterlimit="10" x1="167.971" y1="58.644" x2="183.585" y2="108.557"/>
		
			<line clip-path="url(#XMLID_3_)" fill="#EAEAEA" stroke="#C8CACC" stroke-width="3.1755" stroke-miterlimit="10" x1="175.683" y1="58.644" x2="191.298" y2="108.557"/>
		
			<line clip-path="url(#XMLID_3_)" fill="#EAEAEA" stroke="#C8CACC" stroke-width="3.1755" stroke-miterlimit="10" x1="175.683" y1="58.644" x2="191.298" y2="108.557"/>
		<polyline clip-path="url(#XMLID_3_)" fill="#FFFFFF" stroke="#C8CACC" stroke-width="3.1755" stroke-miterlimit="10" points="
			176.555,61.433 184.345,86.332 207.123,80.004 203.494,52.936 181.719,47.644 176.555,61.433 		"/>
		<use xlink:href="#XMLID_1_"  overflow="visible" fill="none" stroke="#C8CACC" stroke-width="3.1755" stroke-miterlimit="10"/>
	</g>
</g>
</svg>
