<?xml version="1.0" encoding="utf-8"?>
<!-- Generator: Adobe Illustrator 15.1.0, SVG Export Plug-In . SVG Version: 6.00 Build 0)  -->
<!DOCTYPE svg PUBLIC "-//W3C//DTD SVG 1.1//EN" "http://www.w3.org/Graphics/SVG/1.1/DTD/svg11.dtd">
<svg version="1.1" id="Layer_1" xmlns="http://www.w3.org/2000/svg" xmlns:xlink="http://www.w3.org/1999/xlink" x="0px" y="0px"
	 width="50px" height="50px" viewBox="0 0 50 50" enable-background="new 0 0 50 50" xml:space="preserve">
<path fill="#E55552" d="M29,9.155C29,11.278,27.277,13,25.154,13h-0.309C22.722,13,21,11.278,21,9.155v-2.31
	C21,4.722,22.722,3,24.846,3h0.309C27.277,3,29,4.722,29,6.845V9.155z"/>
<path fill="#E55552" d="M45,11.5c0,1.381-1.119,2.5-2.5,2.5h-36C5.119,14,4,12.881,4,11.5l0,0C4,10.119,5.119,9,6.5,9h36
	C43.881,9,45,10.119,45,11.5L45,11.5z"/>
<path fill="#E55552" d="M39,14.071C39,11.823,37.177,10,34.93,10H14.071C11.822,10,10,11.823,10,14.071v28.857
	C10,45.177,11.822,47,14.071,47h20.857C37.177,47,39,45.177,39,42.93V14.071z M34,41H15V14h19V41z"/>
<path fill="#E55552" d="M23,36.541C23,37.898,21.898,39,20.54,39h-0.08C19.102,39,18,37.898,18,36.541V19.459
	C18,18.101,19.102,17,20.46,17h0.08c1.358,0,2.46,1.101,2.46,2.459V36.541z"/>
<path fill="#E55552" d="M31,36.541C31,37.898,29.898,39,28.54,39h-0.08C27.102,39,26,37.898,26,36.541V19.459
	C26,18.101,27.102,17,28.46,17h0.08c1.358,0,2.46,1.101,2.46,2.459V36.541z"/>
</svg>
