<?xml version="1.0" encoding="utf-8"?>
<!-- Generator: Adobe Illustrator 15.1.0, SVG Export Plug-In . SVG Version: 6.00 Build 0)  -->
<!DOCTYPE svg PUBLIC "-//W3C//DTD SVG 1.1//EN" "http://www.w3.org/Graphics/SVG/1.1/DTD/svg11.dtd">
<svg version="1.1" id="Layer_1" xmlns="http://www.w3.org/2000/svg" xmlns:xlink="http://www.w3.org/1999/xlink" x="0px" y="0px"
	 width="250px" height="250px" viewBox="0 0 250 250" enable-background="new 0 0 250 250" xml:space="preserve">
<circle fill="#F7F8F9" stroke="#C8CACC" stroke-width="4.0602" stroke-miterlimit="10" cx="124.75" cy="125.331" r="115.309"/>
<g>
	<g>
		<polygon fill="#FFFFFF" points="118.114,138 116.614,124 132.481,124 130.98,138 		"/>
		<path fill="#C8CACC" d="M130.226,126l-1.06,10h-9.237l-1.059-10H130 M134.737,122h-4.512H118.87h-4.512l0.489,4.669l1.059,9.717
			l0.393,3.614h3.629h9.237h3.629l0.394-3.522l1.06-9.852L134.737,122L134.737,122z"/>
	</g>
	<g>
		<path fill="#FFFFFF" d="M124.008,127.904c-14.724,0-26.703-13.678-26.703-30.491c0-16.813,11.979-30.491,26.703-30.491
			s26.703,13.678,26.703,30.491C150.711,114.227,138.732,127.904,124.008,127.904z"/>
		<path fill="#C8CACC" d="M124.008,68.946c13.63,0,24.679,12.745,24.679,28.467c0,15.723-11.049,28.468-24.679,28.468
			c-13.63,0-24.68-12.745-24.68-28.468C99.329,81.691,110.378,68.946,124.008,68.946 M124.008,64.9
			c-15.84,0-28.726,14.585-28.726,32.514s12.886,32.514,28.726,32.514c15.839,0,28.726-14.586,28.726-32.514
			S139.848,64.9,124.008,64.9L124.008,64.9z"/>
	</g>
	<path fill="#FFFFFF" stroke="#C8CACC" stroke-width="4" stroke-miterlimit="10" d="M156.177,138H92.978
		c-3.161,0-5.978,0.918-5.978,3.955v12.854c0,15.545,16.882,26.907,37.336,26.907c20.395,0,37.08-11.62,37.262-27.099l0.138-11.852
		C161.735,139.728,159.338,138,156.177,138z"/>
	
		<line fill="none" stroke="#C8CACC" stroke-width="4" stroke-linecap="round" stroke-linejoin="bevel" stroke-miterlimit="10" x1="140" y1="178" x2="140" y2="166"/>
	
		<line fill="none" stroke="#C8CACC" stroke-width="4" stroke-linecap="round" stroke-linejoin="bevel" stroke-miterlimit="10" x1="108" y1="178" x2="108" y2="166"/>
</g>
</svg>
