<?xml version="1.0" encoding="utf-8"?>
<!-- Generator: Adobe Illustrator 15.1.0, SVG Export Plug-In . SVG Version: 6.00 Build 0)  -->
<!DOCTYPE svg PUBLIC "-//W3C//DTD SVG 1.1//EN" "http://www.w3.org/Graphics/SVG/1.1/DTD/svg11.dtd">
<svg version="1.1" id="Layer_1" xmlns="http://www.w3.org/2000/svg" xmlns:xlink="http://www.w3.org/1999/xlink" x="0px" y="0px"
	 width="32px" height="32px" viewBox="0 0 32 32" enable-background="new 0 0 32 32" xml:space="preserve">
<g>
	<path fill="none" stroke="#4B5F6A" stroke-width="1.5" stroke-miterlimit="10" d="M16.924,1.19c7.576,0,13.714,6.139,13.714,13.714
		c0,7.591-6.139,13.729-13.714,13.729c-7.572,0-13.71-6.138-13.71-13.729C3.214,7.329,9.353,1.19,16.924,1.19z"/>
</g>
<path fill="#4B5F6A" d="M18.099,15.26v-0.389c0.8-0.597,1.378-1.727,1.378-3.025c0-1.919-1.226-3.476-2.729-3.476
	c-1.506,0-2.646,1.556-2.646,3.476c0,1.366,0.798,2.543,1.598,3.112v0.302c-0.8,0.192-2.4,0.795-4.8,1.588v3.461h11.998v-2.99
	C20.499,16.272,19.698,15.485,18.099,15.26z"/>
</svg>
