<?xml version="1.0" encoding="utf-8"?>
<!-- Generator: Adobe Illustrator 15.1.0, SVG Export Plug-In . SVG Version: 6.00 Build 0)  -->
<!DOCTYPE svg PUBLIC "-//W3C//DTD SVG 1.1//EN" "http://www.w3.org/Graphics/SVG/1.1/DTD/svg11.dtd">

<svg version="1.1" id="Layer_1" xmlns="http://www.w3.org/2000/svg" xmlns:xlink="http://www.w3.org/1999/xlink" x="0px" y="0px"

	 width="25px" height="25px" viewBox="0 0 25 25" enable-background="new 0 0 25 25" xml:space="preserve">
<g>
	<path fill="#969899" d="M19.614,21.114c-0.384,0-0.768-0.146-1.061-0.439L4.076,6.197c-0.586-0.585-0.586-1.536,0-2.121
		c0.586-0.586,1.535-0.586,2.121,0l14.478,14.478c0.586,0.586,0.586,1.535,0,2.121C20.382,20.968,19.998,21.114,19.614,21.114z"/>
</g>
<g>
	<path fill="#969899" d="M5.136,21.114c-0.384,0-0.768-0.146-1.061-0.439c-0.586-0.586-0.586-1.535,0-2.121L18.554,4.076
		c0.586-0.586,1.535-0.586,2.121,0c0.586,0.585,0.586,1.536,0,2.121L6.197,20.675C5.904,20.968,5.52,21.114,5.136,21.114z"/>
</g>
</svg>
